<svg xmlns="http://www.w3.org/2000/svg" viewBox="0 0 100 100" fill="none">
  <defs>
    <linearGradient id="grad-accent" x1="0%" y1="0%" x2="100%" y2="100%">
      <stop offset="0%" stop-color="#4f46e5" />
      <stop offset="50%" stop-color="#6366f1" />
      <stop offset="100%" stop-color="#a5b4fc" />
    </linearGradient>
    <linearGradient id="grad-glow" x1="0%" y1="0%" x2="100%" y2="100%">
      <stop offset="0%" stop-color="#818cf8" stop-opacity="0.05" />
      <stop offset="100%" stop-color="#6366f1" stop-opacity="0.15" />
    </linearGradient>
  </defs>
  
  <!-- Outer glowing capsule circle -->
  <circle cx="50" cy="50" r="44" fill="url(#grad-glow)" stroke="url(#grad-accent)" stroke-width="2" stroke-dasharray="5 5" />
  
  <!-- Main geometric cap -->
  <!-- Top diamond shape -->
  <path d="M50 24 L82 38 L50 52 L18 38 Z" fill="url(#grad-accent)" />
  <path d="M50 26 L76 38 L50 50 L24 38 Z" fill="#ffffff" fill-opacity="0.15" />

  <!-- Cap base support -->
  <path d="M32 46 V58 C32 64 40 68 50 68 C60 68 68 64 68 58 V46 L50 54.5 Z" fill="url(#grad-accent)" />
  
  <!-- Hanging tassel ribbon -->
  <path d="M82 38 V54 C82 58 79 62 76 64 C74.5 65 74 66.5 74 68" stroke="url(#grad-accent)" stroke-width="2.5" stroke-linecap="round" />
  <circle cx="74" cy="72" r="3" fill="url(#grad-accent)" />
</svg>
